<svg width="354" height="124" viewBox="0 0 354 124" fill="none" xmlns="http://www.w3.org/2000/svg">
<rect width="354" height="124" fill="white"/>
<rect x="24" y="9" width="100" height="100" rx="50" fill="url(#paint0_linear_649_9)" fill-opacity="0.25"/>
<path d="M54.2016 89V31.4H72.8416C73.2949 31.4 74.2282 31.4133 75.6416 31.44C77.0549 31.4667 78.4149 31.56 79.7216 31.72C84.3616 32.28 88.2949 33.8933 91.5216 36.56C94.7482 39.2267 97.2016 42.6133 98.8816 46.72C100.562 50.8267 101.402 55.32 101.402 60.2C101.402 65.08 100.562 69.5733 98.8816 73.68C97.2016 77.7867 94.7482 81.1733 91.5216 83.84C88.2949 86.5067 84.3616 88.12 79.7216 88.68C78.4149 88.84 77.0549 88.9333 75.6416 88.96C74.2282 88.9867 73.2949 89 72.8416 89H54.2016ZM65.2416 78.76H72.8416C73.5616 78.76 74.5349 78.7467 75.7616 78.72C76.9882 78.6667 78.0949 78.5467 79.0816 78.36C81.5882 77.8533 83.6282 76.68 85.2016 74.84C86.8016 73 87.9749 70.7867 88.7216 68.2C89.4949 65.6133 89.8816 62.9467 89.8816 60.2C89.8816 57.32 89.4816 54.5867 88.6816 52C87.9082 49.4133 86.7216 47.2267 85.1216 45.44C83.5216 43.6533 81.5082 42.52 79.0816 42.04C78.0949 41.8267 76.9882 41.7067 75.7616 41.68C74.5349 41.6533 73.5616 41.64 72.8416 41.64H65.2416V78.76Z" fill="url(#paint1_linear_649_9)"/>
<path d="M151.517 43.8C154.477 43.8 157.064 44.4 159.277 45.6C161.517 46.7733 163.237 48.4267 164.437 50.56C165.637 52.6933 166.237 55.1333 166.237 57.88C166.237 60.6 165.624 63.0267 164.397 65.16C163.197 67.2933 161.477 68.9733 159.237 70.2C157.024 71.4 154.451 72 151.517 72H140.357V43.8H151.517ZM150.917 65.08C153.211 65.08 155.011 64.4533 156.317 63.2C157.624 61.9467 158.277 60.1733 158.277 57.88C158.277 55.56 157.624 53.7733 156.317 52.52C155.011 51.24 153.211 50.6 150.917 50.6H148.197V65.08H150.917ZM191.211 60.52C191.211 61.1333 191.171 61.7467 191.091 62.36H176.251C176.331 63.5867 176.665 64.5067 177.251 65.12C177.865 65.7067 178.638 66 179.571 66C180.878 66 181.811 65.4133 182.371 64.24H190.731C190.385 65.7867 189.705 67.1733 188.691 68.4C187.705 69.6 186.451 70.5467 184.931 71.24C183.411 71.9333 181.731 72.28 179.891 72.28C177.678 72.28 175.705 71.8133 173.971 70.88C172.265 69.9467 170.918 68.6133 169.931 66.88C168.971 65.1467 168.491 63.1067 168.491 60.76C168.491 58.4133 168.971 56.3867 169.931 54.68C170.891 52.9467 172.225 51.6133 173.931 50.68C175.665 49.7467 177.651 49.28 179.891 49.28C182.105 49.28 184.065 49.7333 185.771 50.64C187.478 51.5467 188.811 52.8533 189.771 54.56C190.731 56.24 191.211 58.2267 191.211 60.52ZM183.211 58.56C183.211 57.6 182.891 56.8533 182.251 56.32C181.611 55.76 180.811 55.48 179.851 55.48C178.891 55.48 178.105 55.7467 177.491 56.28C176.878 56.7867 176.478 57.5467 176.291 58.56H183.211ZM215.86 60.52C215.86 61.1333 215.82 61.7467 215.74 62.36H200.9C200.98 63.5867 201.313 64.5067 201.9 65.12C202.513 65.7067 203.286 66 204.22 66C205.526 66 206.46 65.4133 207.02 64.24H215.38C215.033 65.7867 214.353 67.1733 213.34 68.4C212.353 69.6 211.1 70.5467 209.58 71.24C208.06 71.9333 206.38 72.28 204.54 72.28C202.326 72.28 200.353 71.8133 198.62 70.88C196.913 69.9467 195.566 68.6133 194.58 66.88C193.62 65.1467 193.14 63.1067 193.14 60.76C193.14 58.4133 193.62 56.3867 194.58 54.68C195.54 52.9467 196.873 51.6133 198.58 50.68C200.313 49.7467 202.3 49.28 204.54 49.28C206.753 49.28 208.713 49.7333 210.42 50.64C212.126 51.5467 213.46 52.8533 214.42 54.56C215.38 56.24 215.86 58.2267 215.86 60.52ZM207.86 58.56C207.86 57.6 207.54 56.8533 206.9 56.32C206.26 55.76 205.46 55.48 204.5 55.48C203.54 55.48 202.753 55.7467 202.14 56.28C201.526 56.7867 201.126 57.5467 200.94 58.56H207.86ZM226.908 52.68C227.521 51.64 228.388 50.8133 229.508 50.2C230.628 49.5867 231.948 49.28 233.468 49.28C235.255 49.28 236.868 49.7467 238.308 50.68C239.775 51.6133 240.921 52.9467 241.748 54.68C242.601 56.4133 243.028 58.44 243.028 60.76C243.028 63.08 242.601 65.12 241.748 66.88C240.921 68.6133 239.775 69.9467 238.308 70.88C236.868 71.8133 235.255 72.28 233.468 72.28C231.948 72.28 230.628 71.9733 229.508 71.36C228.415 70.7467 227.548 69.92 226.908 68.88V82.72H219.068V49.56H226.908V52.68ZM235.068 60.76C235.068 59.2933 234.668 58.16 233.868 57.36C233.095 56.5333 232.135 56.12 230.988 56.12C229.841 56.12 228.868 56.5333 228.068 57.36C227.295 58.1867 226.908 59.32 226.908 60.76C226.908 62.2267 227.295 63.3733 228.068 64.2C228.868 65.0267 229.841 65.44 230.988 65.44C232.135 65.44 233.095 65.0267 233.868 64.2C234.668 63.3467 235.068 62.2 235.068 60.76ZM271.912 57.52C273.565 57.8933 274.872 58.72 275.832 60C276.819 61.2533 277.312 62.6933 277.312 64.32C277.312 66.72 276.485 68.6 274.832 69.96C273.179 71.32 270.859 72 267.872 72H253.912V43.8H267.432C270.312 43.8 272.565 44.44 274.192 45.72C275.845 47 276.672 48.8 276.672 51.12C276.672 52.7733 276.232 54.16 275.352 55.28C274.499 56.3733 273.352 57.12 271.912 57.52ZM261.752 55H265.712C267.685 55 268.672 54.1867 268.672 52.56C268.672 50.88 267.685 50.04 265.712 50.04H261.752V55ZM266.312 65.68C268.285 65.68 269.272 64.8533 269.272 63.2C269.272 62.3467 269.005 61.6933 268.472 61.24C267.965 60.7867 267.232 60.56 266.272 60.56H261.752V65.68H266.312ZM279.468 60.76C279.468 58.44 279.881 56.4133 280.708 54.68C281.561 52.9467 282.708 51.6133 284.148 50.68C285.614 49.7467 287.241 49.28 289.028 49.28C290.574 49.28 291.908 49.5867 293.028 50.2C294.148 50.8133 295.014 51.64 295.628 52.68V49.56H303.468V72H295.628V68.88C295.014 69.92 294.134 70.7467 292.988 71.36C291.868 71.9733 290.548 72.28 289.028 72.28C287.241 72.28 285.614 71.8133 284.148 70.88C282.708 69.9467 281.561 68.6133 280.708 66.88C279.881 65.12 279.468 63.08 279.468 60.76ZM295.628 60.76C295.628 59.32 295.228 58.1867 294.428 57.36C293.654 56.5333 292.694 56.12 291.548 56.12C290.374 56.12 289.401 56.5333 288.628 57.36C287.854 58.16 287.468 59.2933 287.468 60.76C287.468 62.2 287.854 63.3467 288.628 64.2C289.401 65.0267 290.374 65.44 291.548 65.44C292.694 65.44 293.654 65.0267 294.428 64.2C295.228 63.3733 295.628 62.2267 295.628 60.76ZM316.215 49.28C317.735 49.28 319.055 49.5867 320.175 50.2C321.322 50.8133 322.202 51.64 322.815 52.68V49.56H330.655V71.76C330.655 73.8667 330.255 75.76 329.455 77.44C328.655 79.1467 327.402 80.5067 325.695 81.52C324.015 82.5333 321.882 83.04 319.295 83.04C315.829 83.04 313.055 82.2267 310.975 80.6C308.895 78.9733 307.709 76.76 307.415 73.96H315.135C315.295 74.68 315.695 75.24 316.335 75.64C316.975 76.04 317.802 76.24 318.815 76.24C321.482 76.24 322.815 74.7467 322.815 71.76V68.88C322.202 69.92 321.322 70.7467 320.175 71.36C319.055 71.9733 317.735 72.28 316.215 72.28C314.429 72.28 312.802 71.8133 311.335 70.88C309.895 69.9467 308.749 68.6133 307.895 66.88C307.069 65.12 306.655 63.08 306.655 60.76C306.655 58.44 307.069 56.4133 307.895 54.68C308.749 52.9467 309.895 51.6133 311.335 50.68C312.802 49.7467 314.429 49.28 316.215 49.28ZM322.815 60.76C322.815 59.32 322.415 58.1867 321.615 57.36C320.842 56.5333 319.882 56.12 318.735 56.12C317.562 56.12 316.589 56.5333 315.815 57.36C315.042 58.16 314.655 59.2933 314.655 60.76C314.655 62.2 315.042 63.3467 315.815 64.2C316.589 65.0267 317.562 65.44 318.735 65.44C319.882 65.44 320.842 65.0267 321.615 64.2C322.415 63.3733 322.815 62.2267 322.815 60.76Z" fill="url(#paint2_linear_649_9)"/>
<path d="M256.59 76.52V77.67H258.84V79.16H256.59V80.43H259.14V82H254.63V74.95H259.14V76.52H256.59ZM263.779 76.34C264.425 76.34 264.939 76.5567 265.319 76.99C265.699 77.4167 265.889 77.9967 265.889 78.73V82H263.929V78.99C263.929 78.67 263.845 78.42 263.679 78.24C263.512 78.0533 263.289 77.96 263.009 77.96C262.715 77.96 262.485 78.0533 262.319 78.24C262.152 78.42 262.069 78.67 262.069 78.99V82H260.109V76.39H262.069V77.19C262.242 76.9367 262.475 76.7333 262.769 76.58C263.062 76.42 263.399 76.34 263.779 76.34ZM269.034 76.32C269.414 76.32 269.744 76.3967 270.024 76.55C270.311 76.7033 270.531 76.91 270.684 77.17V76.39H272.644V81.94C272.644 82.4667 272.544 82.94 272.344 83.36C272.144 83.7867 271.831 84.1267 271.404 84.38C270.984 84.6333 270.451 84.76 269.804 84.76C268.938 84.76 268.244 84.5567 267.724 84.15C267.204 83.7433 266.908 83.19 266.834 82.49H268.764C268.804 82.67 268.904 82.81 269.064 82.91C269.224 83.01 269.431 83.06 269.684 83.06C270.351 83.06 270.684 82.6867 270.684 81.94V81.22C270.531 81.48 270.311 81.6867 270.024 81.84C269.744 81.9933 269.414 82.07 269.034 82.07C268.588 82.07 268.181 81.9533 267.814 81.72C267.454 81.4867 267.168 81.1533 266.954 80.72C266.748 80.28 266.644 79.77 266.644 79.19C266.644 78.61 266.748 78.1033 266.954 77.67C267.168 77.2367 267.454 76.9033 267.814 76.67C268.181 76.4367 268.588 76.32 269.034 76.32ZM270.684 79.19C270.684 78.83 270.584 78.5467 270.384 78.34C270.191 78.1333 269.951 78.03 269.664 78.03C269.371 78.03 269.128 78.1333 268.934 78.34C268.741 78.54 268.644 78.8233 268.644 79.19C268.644 79.55 268.741 79.8367 268.934 80.05C269.128 80.2567 269.371 80.36 269.664 80.36C269.951 80.36 270.191 80.2567 270.384 80.05C270.584 79.8433 270.684 79.5567 270.684 79.19ZM274.751 75.87C274.405 75.87 274.125 75.7767 273.911 75.59C273.705 75.3967 273.601 75.1567 273.601 74.87C273.601 74.5767 273.705 74.3333 273.911 74.14C274.125 73.9467 274.405 73.85 274.751 73.85C275.091 73.85 275.365 73.9467 275.571 74.14C275.785 74.3333 275.891 74.5767 275.891 74.87C275.891 75.1567 275.785 75.3967 275.571 75.59C275.365 75.7767 275.091 75.87 274.751 75.87ZM275.721 76.39V82H273.761V76.39H275.721ZM280.507 76.34C281.154 76.34 281.667 76.5567 282.047 76.99C282.427 77.4167 282.617 77.9967 282.617 78.73V82H280.657V78.99C280.657 78.67 280.574 78.42 280.407 78.24C280.241 78.0533 280.017 77.96 279.737 77.96C279.444 77.96 279.214 78.0533 279.047 78.24C278.881 78.42 278.797 78.67 278.797 78.99V82H276.837V76.39H278.797V77.19C278.971 76.9367 279.204 76.7333 279.497 76.58C279.791 76.42 280.127 76.34 280.507 76.34ZM289.053 79.13C289.053 79.2833 289.043 79.4367 289.023 79.59H285.313C285.333 79.8967 285.416 80.1267 285.563 80.28C285.716 80.4267 285.909 80.5 286.143 80.5C286.469 80.5 286.703 80.3533 286.843 80.06H288.933C288.846 80.4467 288.676 80.7933 288.423 81.1C288.176 81.4 287.863 81.6367 287.483 81.81C287.103 81.9833 286.683 82.07 286.223 82.07C285.669 82.07 285.176 81.9533 284.743 81.72C284.316 81.4867 283.979 81.1533 283.733 80.72C283.493 80.2867 283.373 79.7767 283.373 79.19C283.373 78.6033 283.493 78.0967 283.733 77.67C283.973 77.2367 284.306 76.9033 284.733 76.67C285.166 76.4367 285.663 76.32 286.223 76.32C286.776 76.32 287.266 76.4333 287.693 76.66C288.119 76.8867 288.453 77.2133 288.693 77.64C288.933 78.06 289.053 78.5567 289.053 79.13ZM287.053 78.64C287.053 78.4 286.973 78.2133 286.813 78.08C286.653 77.94 286.453 77.87 286.213 77.87C285.973 77.87 285.776 77.9367 285.623 78.07C285.469 78.1967 285.369 78.3867 285.323 78.64H287.053ZM295.215 79.13C295.215 79.2833 295.205 79.4367 295.185 79.59H291.475C291.495 79.8967 291.578 80.1267 291.725 80.28C291.878 80.4267 292.072 80.5 292.305 80.5C292.632 80.5 292.865 80.3533 293.005 80.06H295.095C295.008 80.4467 294.838 80.7933 294.585 81.1C294.338 81.4 294.025 81.6367 293.645 81.81C293.265 81.9833 292.845 82.07 292.385 82.07C291.832 82.07 291.338 81.9533 290.905 81.72C290.478 81.4867 290.142 81.1533 289.895 80.72C289.655 80.2867 289.535 79.7767 289.535 79.19C289.535 78.6033 289.655 78.0967 289.895 77.67C290.135 77.2367 290.468 76.9033 290.895 76.67C291.328 76.4367 291.825 76.32 292.385 76.32C292.938 76.32 293.428 76.4333 293.855 76.66C294.282 76.8867 294.615 77.2133 294.855 77.64C295.095 78.06 295.215 78.5567 295.215 79.13ZM293.215 78.64C293.215 78.4 293.135 78.2133 292.975 78.08C292.815 77.94 292.615 77.87 292.375 77.87C292.135 77.87 291.938 77.9367 291.785 78.07C291.632 78.1967 291.532 78.3867 291.485 78.64H293.215ZM297.977 77.38C298.197 77.06 298.464 76.8067 298.777 76.62C299.09 76.4333 299.427 76.34 299.787 76.34V78.43H299.237C298.81 78.43 298.494 78.5133 298.287 78.68C298.08 78.8467 297.977 79.1367 297.977 79.55V82H296.017V76.39H297.977V77.38Z" fill="url(#paint3_linear_649_9)"/>
<defs>
<linearGradient id="paint0_linear_649_9" x1="24" y1="59" x2="124" y2="59" gradientUnits="userSpaceOnUse">
<stop stop-color="#FF6347" stop-opacity="0.6"/>
<stop offset="1" stop-color="#FAD161"/>
</linearGradient>
<linearGradient id="paint1_linear_649_9" x1="77" y1="23" x2="77" y2="93" gradientUnits="userSpaceOnUse">
<stop stop-color="#F23F2D" stop-opacity="0.63"/>
<stop offset="1" stop-color="#FAD161"/>
</linearGradient>
<linearGradient id="paint2_linear_649_9" x1="235.5" y1="31" x2="235.5" y2="85" gradientUnits="userSpaceOnUse">
<stop stop-color="#F23F2D" stop-opacity="0.63"/>
<stop offset="1" stop-color="#FAD161"/>
</linearGradient>
<linearGradient id="paint3_linear_649_9" x1="277" y1="68" x2="277" y2="89" gradientUnits="userSpaceOnUse">
<stop stop-color="#F23F2D" stop-opacity="0.63"/>
<stop offset="1" stop-color="#FAD161"/>
</linearGradient>
</defs>
</svg>
